<?xml version="1.0" standalone="no"?>
<!DOCTYPE svg PUBLIC "-//W3C//DTD SVG 20010904//EN"
 "http://www.w3.org/TR/2001/REC-SVG-20010904/DTD/svg10.dtd">
<svg version="1.0" xmlns="http://www.w3.org/2000/svg"
 width="500.000000pt" height="500.000000pt" viewBox="0 0 500.000000 500.000000"
 preserveAspectRatio="xMidYMid meet">

<g transform="translate(0.000000,500.000000) scale(0.100000,-0.100000)"
fill="#000000" stroke="none">
<path d="M1631 2808 c1 -502 4 -1093 8 -1313 7 -370 9 -405 29 -465 29 -89 85
-178 159 -253 73 -73 144 -118 245 -155 72 -27 76 -27 338 -27 246 0 270 2
335 22 190 60 337 203 414 401 l26 67 0 355 c0 195 -1 788 -2 1318 l-3 962
-49 0 -49 0 -332 -592 c-183 -326 -334 -594 -335 -596 -1 -1 -153 264 -337
590 l-335 593 -57 3 -56 3 1 -913z m414 167 c152 -269 288 -507 301 -527 22
-34 28 -38 68 -38 l43 0 206 363 c113 199 253 445 311 547 l106 185 0 -807 0
-808 -675 0 -675 0 0 818 c0 803 1 816 19 787 10 -16 144 -250 296 -520z"/>
</g>
</svg>
