<svg xmlns="http://www.w3.org/2000/svg" version="1.0" width="500.000000pt" height="500.000000pt" viewBox="0 0 500.000000 500.000000" preserveAspectRatio="xMidYMid meet">

<g transform="translate(0.000000,500.000000) scale(0.100000,-0.100000)" fill="#005587" stroke="none">
<path d="M1631 2813 c0 -500 4 -1088 8 -1308 7 -396 8 -401 33 -475 39 -112 74 -167 157 -250 81 -81 168 -134 276 -167 52 -15 96 -18 315 -18 l255 0 85 31 c194 69 339 215 401 406 28 84 26 -39 22 1721 l-3 967 -48 0 -47 0 -335 -595 c-259 -460 -337 -592 -345 -581 -6 7 -158 275 -339 595 l-328 581 -54 0 -54 0 1 -907z m424 149 l308 -543 50 3 50 3 303 534 c167 294 306 537 309 539 3 3 5 -358 5 -801 l0 -807 -675 0 -675 0 0 817 c0 473 4 813 9 808 5 -6 147 -254 316 -553z" fill="#005587"/>
</g>
</svg>